<?xml version="1.0" standalone="no"?>
<!DOCTYPE svg PUBLIC "-//W3C//DTD SVG 20010904//EN"
 "http://www.w3.org/TR/2001/REC-SVG-20010904/DTD/svg10.dtd">
<svg version="1.0" xmlns="http://www.w3.org/2000/svg"
 width="512.000000pt" height="512.000000pt" viewBox="0 0 512.000000 512.000000"
 preserveAspectRatio="xMidYMid meet">
<metadata>
Created by potrace 1.16, written by Peter Selinger 2001-2019
</metadata>
<g transform="translate(0.000000,512.000000) scale(0.100000,-0.100000)"
fill="#000000" stroke="none">
<path d="M2440 4098 c-658 -46 -1352 -329 -1907 -777 -45 -36 -80 -67 -78 -69
2 -2 52 24 112 57 155 87 516 241 531 227 2 -3 -13 -16 -35 -30 -72 -48 -88
-61 -213 -161 -69 -55 -198 -171 -287 -259 -171 -168 -175 -171 -348 -269 -88
-50 -109 -66 -107 -82 6 -39 60 -100 113 -128 45 -24 62 -28 101 -23 26 3 60
13 75 23 15 9 116 105 223 213 205 205 288 278 466 413 544 412 1127 571 1684
461 251 -50 453 -128 687 -265 219 -130 412 -280 612 -477 123 -122 331 -355
331 -372 0 -15 -128 -212 -207 -318 -191 -257 -418 -473 -679 -647 -214 -143
-521 -276 -715 -310 -107 -19 -294 -19 -435 -1 -105 14 -317 57 -379 76 -382
120 -694 243 -1044 412 -78 38 -147 68 -152 66 -14 -5 302 -189 456 -266 311
-155 656 -287 883 -337 9 -2 33 -9 52 -15 19 -5 100 -22 180 -37 186 -34 471
-39 612 -10 321 65 614 203 903 426 244 189 525 493 684 740 l51 80 57 6 c282
31 437 90 419 158 -6 27 -402 433 -531 545 -137 119 -376 300 -458 347 -26 15
-47 29 -45 31 5 5 246 -58 505 -132 90 -25 168 -44 174 -42 19 6 -172 137
-400 274 -168 102 -511 258 -696 319 -189 61 -359 102 -550 130 -198 29 -438
37 -645 23z"/>
<path d="M2053 3430 c-67 -40 -64 12 -61 -951 l3 -871 37 -34 38 -34 481 0
c528 0 516 -1 553 60 14 25 16 110 16 890 0 950 3 900 -63 940 -31 19 -53 20
-502 20 -449 0 -471 -1 -502 -20z m947 -860 l0 -680 -445 0 -445 0 0 680 0
680 445 0 445 0 0 -680z"/>
<path d="M2430 2934 c-101 -37 -193 -128 -226 -226 -26 -76 -24 -187 5 -260
27 -70 102 -154 168 -190 191 -103 428 -21 521 180 36 77 37 199 3 284 -30 76
-104 156 -178 193 -49 25 -72 29 -153 32 -69 2 -107 -1 -140 -13z m229 -291
c46 -26 84 -53 84 -58 1 -10 -277 -175 -295 -175 -7 0 -9 23 -5 68 4 37 7 116
7 175 l0 109 63 -35 c34 -20 100 -57 146 -84z"/>
<path d="M2710 854 c0 -1 17 -13 37 -26 20 -13 40 -25 44 -28 8 -5 59 -359 59
-405 0 -19 -12 -27 -67 -49 l-68 -26 95 6 c263 15 341 36 408 108 50 54 65
101 60 182 -3 50 -10 72 -34 106 -50 72 -92 86 -328 112 -113 12 -206 21 -206
20z"/>
<path d="M3439 851 c-49 -10 -103 -45 -117 -76 -19 -41 -15 -99 9 -129 22 -28
88 -65 154 -86 53 -17 75 -37 75 -71 0 -63 -80 -76 -172 -30 -32 16 -58 26
-58 22 0 -4 11 -38 24 -77 18 -49 25 -61 25 -41 1 15 3 27 6 27 3 0 33 -15 67
-32 59 -31 67 -33 172 -33 95 0 117 3 151 22 66 35 97 75 102 130 7 64 -17 93
-104 128 -126 50 -151 64 -158 85 -4 12 -1 27 5 35 21 26 64 17 125 -26 33
-23 55 -33 51 -24 -3 8 -15 48 -28 88 -20 68 -22 70 -31 44 -5 -15 -12 -26
-15 -25 -122 65 -206 85 -283 69z"/>
<path d="M1680 831 c-123 -14 -141 -18 -116 -27 27 -9 35 -26 102 -213 41
-112 74 -207 74 -211 0 -5 -14 -17 -31 -28 l-32 -20 119 -6 c65 -4 142 -8 169
-10 44 -3 48 -2 30 10 -63 42 -66 19 31 257 77 191 91 217 116 228 49 20 44
31 -13 25 -30 -3 -90 -8 -134 -12 -70 -5 -77 -8 -61 -20 18 -13 18 -18 -18
-156 -21 -79 -41 -149 -45 -156 -4 -7 -15 59 -25 148 l-18 162 23 24 22 24
-24 -1 c-13 -1 -89 -9 -169 -18z"/>
<path d="M2260 831 l25 -20 -53 -208 c-50 -200 -54 -209 -88 -238 l-36 -30
154 11 c84 7 155 12 158 13 3 1 -5 9 -18 19 l-23 18 20 47 20 47 55 0 c55 0
55 0 65 -37 10 -33 8 -40 -25 -85 -20 -26 -32 -48 -28 -48 4 0 70 19 146 42
l139 42 -32 16 c-28 13 -42 37 -111 189 -43 96 -78 180 -78 187 0 7 19 19 43
27 l42 15 -61 1 c-33 1 -123 4 -200 7 l-139 6 25 -21z"/>
</g>
</svg>
